<svg xmlns="http://www.w3.org/2000/svg"  viewBox="0 0 32 32" width="32px" height="32px"><path d="M 15.990234 3.9414062 C 15.23975 3.9414062 14.489266 3.9609771 13.736328 4.0019531 A 1.0001 1.0001 0 0 0 13.730469 4.0019531 C 12.744296 4.0611231 11.961403 4.8528905 11.847656 5.8007812 C 11.799016 6.2081671 11.854554 6.5997142 11.865234 6.9980469 C 10.002325 6.8726092 8.2400996 6.8498845 6.140625 6.5507812 A 1.0001 1.0001 0 1 0 5.859375 8.5292969 C 6.2298113 8.5820714 6.5777704 8.6205008 6.9394531 8.6679688 C 6.3930509 13.978345 6.9025037 20.654612 8.3046875 25.212891 C 8.3046875 25.212891 8.3046875 25.214844 8.3046875 25.214844 C 8.7015382 26.512738 9.8239844 27.466871 11.173828 27.650391 C 14.983841 28.17591 16.932657 28.186161 20.736328 27.660156 A 1.0001 1.0001 0 0 0 20.738281 27.660156 C 22.141617 27.463689 23.277638 26.433503 23.652344 25.080078 L 23.652344 25.078125 C 25.068335 20.042327 25.600997 13.96426 25.060547 8.6679688 C 25.42223 8.6205008 25.770189 8.5820714 26.140625 8.5292969 A 1.0001 1.0001 0 1 0 25.859375 6.5507812 C 23.754861 6.8506024 21.988136 6.874679 20.121094 7 C 20.130595 6.6003754 20.182347 6.2020992 20.132812 5.7988281 C 20.017254 4.8550976 19.249434 4.0619192 18.25 4.0019531 A 1.0001 1.0001 0 0 0 18.244141 4.0019531 C 17.491203 3.9609771 16.740719 3.9414062 15.990234 3.9414062 z M 15.990234 5.9394531 C 16.702838 5.9394443 17.415439 5.9591829 18.130859 5.9980469 C 18.131425 5.9980808 18.142034 6.0047466 18.146484 6.0410156 A 1.0001 1.0001 0 0 0 18.148438 6.0429688 C 18.194118 6.4141348 18.154836 6.7838715 18.134766 7.1542969 C 16.768595 7.2027549 15.217861 7.2030639 13.851562 7.1542969 C 13.831642 6.7813141 13.788321 6.405114 13.832031 6.0390625 C 13.838331 5.9869535 13.835829 5.9988769 13.849609 5.9980469 C 14.565025 5.9592184 15.277631 5.939462 15.990234 5.9394531 z M 8.9257812 8.9101562 C 13.858452 9.4434994 18.143326 9.443641 23.076172 8.9101562 C 23.577465 13.905831 23.060874 19.794847 21.726562 24.539062 A 1.0001 1.0001 0 0 0 21.726562 24.544922 C 21.560036 25.149354 21.056097 25.596364 20.460938 25.679688 C 16.746332 26.193312 15.17645 26.184326 11.447266 25.669922 A 1.0001 1.0001 0 0 0 11.443359 25.669922 C 10.875518 25.593022 10.380937 25.168223 10.216797 24.628906 A 1.0001 1.0001 0 0 0 10.214844 24.625 C 8.9406335 20.483682 8.4237821 13.908804 8.9257812 8.9101562 z"/></svg>